<svg width="40" height="40" viewBox="0 0 40 40" fill="none" xmlns="http://www.w3.org/2000/svg">
<path fill-rule="evenodd" clip-rule="evenodd" d="M14.1667 4.86979C12.786 4.86979 11.6667 5.98908 11.6667 7.36979V32.6302C11.6667 34.0109 12.786 35.1302 14.1667 35.1302H25.8334C27.2141 35.1302 28.3334 34.0109 28.3334 32.6302V7.36979C28.3334 5.98908 27.2141 4.86979 25.8334 4.86979H25.6944L25.2885 5.84388C25.0297 6.46491 24.4228 6.86942 23.75 6.86942H16.25C15.5772 6.86942 14.9704 6.46491 14.7116 5.84388L14.3057 4.86979H14.1667ZM8.33337 7.36979C8.33337 4.14813 10.945 1.53646 14.1667 1.53646H25.8334C29.055 1.53646 31.6667 4.14813 31.6667 7.36979V32.6302C31.6667 35.8519 29.055 38.4635 25.8334 38.4635H14.1667C10.945 38.4635 8.33337 35.8519 8.33337 32.6302V7.36979Z" fill="#FF5A30"/>
</svg>
